<svg xmlns="http://www.w3.org/2000/svg" xmlns:xlink="http://www.w3.org/1999/xlink" width="185" height="185" viewBox="0 0 185 185">
  <defs>
    <filter id="Ellipse_31" x="0" y="0" width="185" height="185" filterUnits="userSpaceOnUse">
      <feOffset dy="10" input="SourceAlpha"/>
      <feGaussianBlur stdDeviation="7.5" result="blur"/>
      <feFlood flood-opacity="0.161"/>
      <feComposite operator="in" in2="blur"/>
      <feComposite in="SourceGraphic"/>
    </filter>
  </defs>
  <g id="Component_7_1" data-name="Component 7 – 1" transform="translate(22.5 12.5)">
    <g transform="matrix(1, 0, 0, 1, -22.5, -12.5)" filter="url(#Ellipse_31)">
      <circle id="Ellipse_31-2" data-name="Ellipse 31" cx="70" cy="70" r="70" transform="translate(22.5 12.5)" fill="#f9f9f9"/>
    </g>
    <path id="Icon_awesome-clock" data-name="Icon awesome-clock" d="M20.988.563A20.425,20.425,0,1,0,41.413,20.988,20.422,20.422,0,0,0,20.988.563Zm4.7,28.834-7.264-5.279a1,1,0,0,1-.4-.8V9.457a.991.991,0,0,1,.988-.988h3.953a.991.991,0,0,1,.988.988V20.8l5.23,3.805a.988.988,0,0,1,.214,1.384l-2.323,3.2A1,1,0,0,1,25.691,29.4Z" transform="translate(49.438 48.748)" fill="#245808"/>
  </g>
</svg>
