<svg xmlns="http://www.w3.org/2000/svg" width="18.12" height="18.117" viewBox="0 0 18.12 18.117">
  <path id="Icon_awesome-upload" data-name="Icon awesome-upload" d="M10.476,13.593H7.644a.847.847,0,0,1-.849-.849V6.8h-3.1a.706.706,0,0,1-.5-1.207L8.575.2a.686.686,0,0,1,.966,0l5.386,5.386a.706.706,0,0,1-.5,1.207h-3.1v5.946A.847.847,0,0,1,10.476,13.593Zm7.644-.283v3.964a.847.847,0,0,1-.849.849H.849A.847.847,0,0,1,0,17.273V13.309a.847.847,0,0,1,.849-.849H5.662v.283a1.983,1.983,0,0,0,1.982,1.982h2.831a1.983,1.983,0,0,0,1.982-1.982V12.46H17.27A.847.847,0,0,1,18.12,13.309Zm-4.388,3.114a.708.708,0,1,0-.708.708A.71.71,0,0,0,13.731,16.424Zm2.265,0a.708.708,0,1,0-.708.708A.71.71,0,0,0,16,16.424Z" transform="translate(0 -0.005)" fill="#fff"/>
</svg>
