<svg xmlns="http://www.w3.org/2000/svg" xmlns:xlink="http://www.w3.org/1999/xlink" width="185" height="185" viewBox="0 0 185 185">
  <defs>
    <filter id="Ellipse_20" x="0" y="0" width="185" height="185" filterUnits="userSpaceOnUse">
      <feOffset dy="10" input="SourceAlpha"/>
      <feGaussianBlur stdDeviation="7.5" result="blur"/>
      <feFlood flood-opacity="0.161"/>
      <feComposite operator="in" in2="blur"/>
      <feComposite in="SourceGraphic"/>
    </filter>
  </defs>
  <g id="Component_6_1" data-name="Component 6 – 1" transform="translate(22.5 12.5)">
    <g transform="matrix(1, 0, 0, 1, -22.5, -12.5)" filter="url(#Ellipse_20)">
      <circle id="Ellipse_20-2" data-name="Ellipse 20" cx="70" cy="70" r="70" transform="translate(22.5 12.5)" fill="#f9f9f9"/>
    </g>
    <path id="Icon_awesome-map-marker-alt" data-name="Icon awesome-map-marker-alt" d="M15.638,45.54C2.448,26.419,0,24.456,0,17.429a17.429,17.429,0,1,1,34.858,0c0,7.027-2.448,8.99-15.638,28.111a2.18,2.18,0,0,1-3.582,0Zm1.791-20.849a7.262,7.262,0,1,0-7.262-7.262A7.262,7.262,0,0,0,17.429,24.691Z" transform="translate(52.938 48.738)" fill="#245808"/>
  </g>
</svg>
