<svg xmlns="http://www.w3.org/2000/svg" xmlns:xlink="http://www.w3.org/1999/xlink" width="185" height="185" viewBox="0 0 185 185">
  <defs>
    <filter id="Ellipse_30" x="0" y="0" width="185" height="185" filterUnits="userSpaceOnUse">
      <feOffset dy="10" input="SourceAlpha"/>
      <feGaussianBlur stdDeviation="7.5" result="blur"/>
      <feFlood flood-opacity="0.161"/>
      <feComposite operator="in" in2="blur"/>
      <feComposite in="SourceGraphic"/>
    </filter>
  </defs>
  <g id="Component_6_1" data-name="Component 6 – 1" transform="translate(22.5 12.5)">
    <g transform="matrix(1, 0, 0, 1, -22.5, -12.5)" filter="url(#Ellipse_30)">
      <circle id="Ellipse_30-2" data-name="Ellipse 30" cx="70" cy="70" r="70" transform="translate(22.5 12.5)" fill="#f9f9f9"/>
    </g>
    <path id="Icon_material-email" data-name="Icon material-email" d="M39.132,6H7.015A3.956,3.956,0,0,0,3.02,9.908L3,33.353a3.974,3.974,0,0,0,4.015,3.908H39.132a3.974,3.974,0,0,0,4.015-3.908V9.908A3.974,3.974,0,0,0,39.132,6Zm0,7.815L23.074,23.584,7.015,13.815V9.908l16.059,9.769L39.132,9.908Z" transform="translate(46.488 50.233)" fill="#245808"/>
  </g>
</svg>
