<svg xmlns="http://www.w3.org/2000/svg" width="208.817" height="101.614" viewBox="0 0 208.817 101.614">
  <g id="Group_86" data-name="Group 86" transform="translate(-15.383 -51.574)">
    <line id="Line_1" data-name="Line 1" x2="207.185" transform="translate(15.828 132.37)" fill="none" stroke="#13213d" stroke-miterlimit="2.613" stroke-width="1"/>
    <line id="Line_2" data-name="Line 2" x2="207.185" transform="translate(15.828 152.688)" fill="none" stroke="#13213d" stroke-miterlimit="2.613" stroke-width="1"/>
    <path id="Path_116" data-name="Path 116" d="M217.384,105.763v6.226H218.7a4.522,4.522,0,0,0,1.067-.09,1.571,1.571,0,0,0,.713-.391,2.008,2.008,0,0,0,.461-.906,6.479,6.479,0,0,0,.181-1.724,5.911,5.911,0,0,0-.181-1.671,2.166,2.166,0,0,0-.5-.911,1.628,1.628,0,0,0-.818-.442,7.479,7.479,0,0,0-1.448-.09Zm-1.778-1.589h3.233a5.829,5.829,0,0,1,1.668.181,2.889,2.889,0,0,1,1.32.865,4.171,4.171,0,0,1,.839,1.524,7.5,7.5,0,0,1,.286,2.223,6.557,6.557,0,0,1-.271,2,4.188,4.188,0,0,1-.937,1.662,3.08,3.08,0,0,1-1.243.75,4.986,4.986,0,0,1-1.566.2h-3.328Zm-8.18,9.4v-9.4h6.5v1.589H209.2v2.088h4.39v1.589H209.2v2.548H214.1v1.589Zm-8.646-3.047,1.729-.184a2.32,2.32,0,0,0,.63,1.364,1.821,1.821,0,0,0,1.281.435,1.875,1.875,0,0,0,1.286-.387,1.18,1.18,0,0,0,.433-.906.9.9,0,0,0-.182-.568,1.415,1.415,0,0,0-.635-.406c-.205-.079-.676-.215-1.412-.412a4.641,4.641,0,0,1-1.993-.934,2.538,2.538,0,0,1-.8-1.9,2.573,2.573,0,0,1,.378-1.348,2.425,2.425,0,0,1,1.093-.956,4.109,4.109,0,0,1,1.724-.328,3.491,3.491,0,0,1,2.479.785,2.867,2.867,0,0,1,.873,2.092l-1.778.066a1.39,1.39,0,0,0-1.6-1.366,1.891,1.891,0,0,0-1.2.341.711.711,0,0,0-.279.586.743.743,0,0,0,.263.573,4.436,4.436,0,0,0,1.625.632,8.127,8.127,0,0,1,1.906.676,2.543,2.543,0,0,1,.969.956,2.963,2.963,0,0,1,.35,1.5,2.905,2.905,0,0,1-.419,1.515,2.561,2.561,0,0,1-1.185,1.049,4.666,4.666,0,0,1-1.911.343,3.629,3.629,0,0,1-2.556-.823A3.68,3.68,0,0,1,198.779,110.531Zm-8.39-6.357h1.778v5.1a11.2,11.2,0,0,0,.066,1.571,1.548,1.548,0,0,0,.535.929,1.774,1.774,0,0,0,1.161.35,1.674,1.674,0,0,0,1.126-.33,1.337,1.337,0,0,0,.456-.813,11.529,11.529,0,0,0,.077-1.6v-5.206h1.778v4.945a13.7,13.7,0,0,1-.143,2.4,2.752,2.752,0,0,1-.53,1.182,2.658,2.658,0,0,1-1.028.767,4.208,4.208,0,0,1-1.685.286,4.514,4.514,0,0,1-1.9-.31,2.76,2.76,0,0,1-1.025-.809,2.659,2.659,0,0,1-.494-1.044,12.168,12.168,0,0,1-.174-2.389Zm-3.239,5.937,1.717.565a4.24,4.24,0,0,1-1.317,2.308,3.57,3.57,0,0,1-2.333.752,3.663,3.663,0,0,1-2.877-1.281,5.118,5.118,0,0,1-1.126-3.5,5.39,5.39,0,0,1,1.131-3.65,3.76,3.76,0,0,1,2.978-1.3,3.514,3.514,0,0,1,2.619,1.023,3.781,3.781,0,0,1,.9,1.735l-1.755.447a2.028,2.028,0,0,0-.649-1.154,1.8,1.8,0,0,0-1.2-.422,1.944,1.944,0,0,0-1.588.752,3.855,3.855,0,0,0-.608,2.428,4.153,4.153,0,0,0,.6,2.538,1.892,1.892,0,0,0,1.558.757,1.708,1.708,0,0,0,1.218-.481A2.865,2.865,0,0,0,187.15,110.111Zm-13.7-1.241a3.7,3.7,0,0,0,.691,2.425,2.27,2.27,0,0,0,3.5.007,3.784,3.784,0,0,0,.68-2.458,3.7,3.7,0,0,0-.663-2.414,2.347,2.347,0,0,0-3.533.008A3.743,3.743,0,0,0,173.453,108.87Zm-1.827.064a6.384,6.384,0,0,1,.4-2.417,4.458,4.458,0,0,1,.818-1.292,3.468,3.468,0,0,1,1.135-.849,4.553,4.553,0,0,1,1.895-.373,3.992,3.992,0,0,1,3.11,1.292,6.112,6.112,0,0,1,.008,7.165,4.392,4.392,0,0,1-6.21.007A5.076,5.076,0,0,1,171.626,108.934Zm-7.124,4.645v-9.4h6.034v1.589h-4.254V108h3.678v1.589h-3.678v3.993Zm-7.7-2.509v-1.8h3.312v1.8Zm-11.378,2.509v-9.4h6.5v1.589H147.2v2.088h4.39v1.589H147.2v2.548H152.1v1.589Zm-5.934,0-3.141-9.4h1.921l2.23,6.962,2.141-6.962h1.888l-3.123,9.4Zm-5.715,0v-9.4h1.78v9.4Zm-5.454,0v-7.815h-2.6v-1.589h6.966v1.589H130.1v7.815Zm-5.261-3.73-1.222-3.481-1.185,3.481Zm3.249,3.73H124.4l-.759-2.141h-3.522l-.731,2.141H117.5l3.41-9.4h1.877Zm-12.933,0-3.143-9.4h1.921l2.23,6.962,2.141-6.962h1.888l-3.123,9.4ZM103.05,108.87a3.7,3.7,0,0,0,.691,2.425,2.27,2.27,0,0,0,3.5.007,3.774,3.774,0,0,0,.681-2.458,3.7,3.7,0,0,0-.665-2.414,2.345,2.345,0,0,0-3.532.008A3.733,3.733,0,0,0,103.05,108.87Zm-1.827.064a6.382,6.382,0,0,1,.4-2.417,4.389,4.389,0,0,1,.818-1.292,3.434,3.434,0,0,1,1.135-.849,4.548,4.548,0,0,1,1.895-.373,3.986,3.986,0,0,1,3.108,1.292,6.105,6.105,0,0,1,.008,7.165,3.948,3.948,0,0,1-3.092,1.289,3.988,3.988,0,0,1-3.118-1.282A5.084,5.084,0,0,1,101.222,108.934Zm-8.489,4.645v-9.4h1.722l3.614,6.3v-6.3h1.644v9.4H97.937l-3.56-6.182v6.182Zm-8.856,0v-9.4H85.6l3.614,6.3v-6.3h1.644v9.4H89.081l-3.56-6.182v6.182Zm-3.468,0v-9.4h1.778v9.4Zm-7.638-2.509v-1.8h3.31v1.8Zm-8.853,2.509v-3.957L60.7,104.174h2.079l2.075,3.724,2.023-3.724h2.039l-3.22,5.461v3.944Zm-7.822,0v-7.815H53.5v-1.589h6.965v1.589H57.875v7.815Zm-5.443,0v-9.4h1.778v9.4Zm-7.38,0v-9.326h1.778v7.737h4.4v1.589Zm-4.246-3.73-1.22-3.481-1.185,3.481Zm3.249,3.73H40.363l-.759-2.141h-3.52l-.731,2.141h-1.88l3.409-9.4H38.76Zm-16.765-9.4H27.29v5.1a11.48,11.48,0,0,0,.066,1.571,1.548,1.548,0,0,0,.535.929,1.774,1.774,0,0,0,1.161.35,1.677,1.677,0,0,0,1.126-.33,1.329,1.329,0,0,0,.456-.813,11.529,11.529,0,0,0,.077-1.6v-5.206H32.49v4.945a13.7,13.7,0,0,1-.143,2.4,2.752,2.752,0,0,1-.53,1.182,2.658,2.658,0,0,1-1.028.767,4.2,4.2,0,0,1-1.685.286,4.514,4.514,0,0,1-1.9-.31,2.76,2.76,0,0,1-1.025-.809,2.659,2.659,0,0,1-.494-1.044,12.17,12.17,0,0,1-.174-2.389Zm-3.9,7.145a2.939,2.939,0,0,0,.511-1.041,5.246,5.246,0,0,0,.171-1.4,3.747,3.747,0,0,0-.672-2.438,2.309,2.309,0,0,0-3.51,0,3.743,3.743,0,0,0-.675,2.438,3.822,3.822,0,0,0,.675,2.471,2.116,2.116,0,0,0,1.7.821,1.973,1.973,0,0,0,.726-.135,4.9,4.9,0,0,0-1.093-.588l.5-1.1A5.91,5.91,0,0,1,21.608,111.319Zm1.424,1.069a5.574,5.574,0,0,0,1.417.8l-.653,1.353a3.856,3.856,0,0,1-.782-.355c-.056-.031-.448-.309-1.179-.837a4.467,4.467,0,0,1-1.911.4,4.053,4.053,0,0,1-3.172-1.277,6.193,6.193,0,0,1,0-7.185A3.973,3.973,0,0,1,19.876,104a3.936,3.936,0,0,1,3.1,1.284,5.2,5.2,0,0,1,1.144,3.587,6.593,6.593,0,0,1-.319,2.144A4.555,4.555,0,0,1,23.031,112.388Z" transform="translate(0.142 33.653)" fill="#015322" fill-rule="evenodd"/>
    <path id="Path_117" data-name="Path 117" d="M15.383,125.515l24.187.02L52.737,86.12l14.084,29.506c1.571,3.279,3.149,6.86,4.768,9.91l23.582.03c1.328,0,.946.189,1.893-2.66l3.384-10.411c1-3.141,13.414-40.479,13.457-41.5l-20.116-.051,5.8-18.555H95.576L82.148,93.236,63.017,53.616,62.4,52.327l-23.372,0-.386,1.192Z" transform="translate(0 0.483)" fill="#9e2d21" fill-rule="evenodd"/>
    <path id="Path_118" data-name="Path 118" d="M164.863,103.321c-.78-.453-16.693-5.676-17.448-5.717-1.082,1.3-2.118,3.43-3.312,5.034-3.865,5.192-8.48,9.05-15.936,9.3-13.667.455-12.649-10.2-9.469-20.5,2.811-9.107,6.287-16.171,13.234-20.446,7.155-4.405,20.3-5.32,20.61,7.324.869.184,20.594-3.84,21.282-4.308a26.035,26.035,0,0,0-3.5-13.511c-2.361-3.54-5.341-5.738-10.073-7.2-9.27-2.862-21.4-1.873-30.214.9-17.186,5.4-27.805,19.157-33.378,35.519-3.215,9.442-4.486,19.893.386,28.326,4.63,8.012,12.767,10.283,24.126,10.49,15.332.277,27.359-4.574,36.588-15.084,1.031-1.176,6.8-8.208,7.108-10.124" transform="translate(50.339 0)" fill="#13213d" fill-rule="evenodd"/>
    <path id="Path_119" data-name="Path 119" d="M63.9,70.078l28.2.007c.011.68-3.964,12.531-4.451,13.9-3.088,8.633-6.287,19.41-9.265,28.383-.849,2.555-1.53,4.742-2.317,7.076-.483,1.433-2.13,5.9-2.208,7.226l26.948,0,18.486-56.581c.383,0,.736,0,1.064,0h3.714c1.538-.19,1.011-1.207,5.669-5.694,6.275-6.045,11.8-9,20.317-11.9l-80.495-.136Z" transform="translate(31.139 0.507)" fill="#015322" fill-rule="evenodd"/>
  </g>
</svg>
