<svg xmlns="http://www.w3.org/2000/svg" width="102.778" height="70.904" viewBox="0 0 102.778 70.904">
  <g id="Group_52" data-name="Group 52" transform="translate(1008.028 -109.984)">
    <path id="Path_92" data-name="Path 92" d="M-974.358,173.393v-1h-.606c-3.2,0-6.4-.051-9.6.019a3.83,3.83,0,0,1-3.908-3.924q0-2.219,0-4.439c0-.135-.013-.27-.023-.463-.563,0-1.11,0-1.658,0a3.2,3.2,0,0,1-3.316-3.323q-.006-2.82,0-5.639v-.615c-.719,0-1.388-.011-2.056,0a2.732,2.732,0,0,1-1.9-.684,1,1,0,0,0-.6-.184c-2.483-.013-4.966-.006-7.449-.008a2.3,2.3,0,0,1-2.547-2.566q0-2.767,0-5.534a2.239,2.239,0,0,1,2.348-2.437c2.534-.027,5.069-.014,7.6-.035a1.182,1.182,0,0,0,.7-.213,2.647,2.647,0,0,1,1.756-.634h2.116c.011-.221.026-.4.026-.583,0-1.914,0-3.828,0-5.743a3.194,3.194,0,0,1,3.234-3.252c.566-.006,1.131,0,1.767,0,0-1.175-.009-2.305,0-3.434a18.191,18.191,0,0,1,.085-2.269,3.6,3.6,0,0,1,3.431-3.093c2.172-.036,4.345-.01,6.518-.011q5.761,0,11.523-.008a1.21,1.21,0,0,0,.2-.041c.011-.139.033-.287.033-.435,0-2.432.008-4.863-.009-7.294a2.2,2.2,0,0,0-.23-.7c-.029-.079-.1-.142-.13-.221a5.379,5.379,0,0,1-.011-3.629,1.628,1.628,0,0,1,1.656-1.021q14.277,0,28.556,0a1.97,1.97,0,0,1,1.929,1.865,13.8,13.8,0,0,1-.011,1.912,1.7,1.7,0,0,1-.282.868,2,2,0,0,0-.344,1.3c.012,2.259.006,4.518.006,6.777v.575c.171.018.287.041.4.041,3.535.012,7.07.041,10.6.026,3.39-.015,6.781-.1,10.172-.112a8.813,8.813,0,0,1,8.689,6.282,9.439,9.439,0,0,1,.407,2.794c.031,8.034.019,16.07.019,24.1,0,2.362.039,4.724-.012,7.085a8.755,8.755,0,0,1-5.287,8.2,8.07,8.07,0,0,1-3.558.765q-4.732,0-9.462,0h-3.424v.907h1.106a3.651,3.651,0,0,1,3.828,3.831c0,.535.006,1.069,0,1.6a1.944,1.944,0,0,1-2.074,2.068q-6,.007-12,0l-30.625,0-10.343,0a1.94,1.94,0,0,1-2.179-2.155c0-.587-.005-1.173,0-1.759A3.6,3.6,0,0,1-975.9,173.4C-975.41,173.368-974.911,173.393-974.358,173.393Zm-2.879-2.921h.754q15.256,0,30.513,0,10.19,0,20.38.006c.458,0,.614-.1.612-.594-.019-5.189-.011-10.378-.011-15.567q0-14.2,0-28.4v-.676h-52.248Zm54.113-45.265v45.3c.159.013.276.03.393.03,2.944,0,5.89.023,8.834-.018a6.331,6.331,0,0,0,2.018-.37,7,7,0,0,0,4.706-6.735c.009-3.43,0-6.86,0-10.29q0-10.421,0-20.841a7.034,7.034,0,0,0-7.11-7.115c-2.773.061-5.547.012-8.322.013C-922.759,125.187-922.911,125.2-923.124,125.208Zm-56.007,45.237v-45.21h-5.3a1.871,1.871,0,0,0-2.1,2.094q0,5.791,0,11.581-.008,11.895-.018,23.789,0,2.948.019,5.894a1.709,1.709,0,0,0,1.513,1.838C-983.077,170.478-981.13,170.445-979.13,170.445Zm1.808,8.511h53.286a16.233,16.233,0,0,0-.029-2.212,1.794,1.794,0,0,0-.632-1.058,2.206,2.206,0,0,0-1.191-.376c-1.006-.051-2.018-.017-3.1-.017v-2.975h-31.148c-3.88,0-7.76.013-11.64-.014-.544,0-.675.16-.647.669.041.753.011,1.511.011,2.319h-.548c-.88,0-1.759-.007-2.638,0a1.64,1.64,0,0,0-1.71,1.353C-977.38,177.393-977.322,178.154-977.322,178.955Zm12.531-55.569h27.341v-9.643l.137.08c.15-.139.41-.265.429-.42a12.652,12.652,0,0,0,.021-1.471h-28.514v1.7l.586.091Zm-31.546,21.127h-9.023c-.7,0-.742.036-.743.714q0,2.635,0,5.27c0,.684.036.718.741.718h9.056c.035.43.093.843.588.863.75.029,1.5.008,2.283.008v-8.458h-1.827C-996.083,143.626-996.165,143.692-996.337,144.513Zm7.925,17.12V134.086h-1.463c-1.286,0-1.677.382-1.678,1.65q0,12.175,0,24.349a2.968,2.968,0,0,0,.054.615,1.129,1.129,0,0,0,1.043.924C-989.79,161.657-989.12,161.633-988.411,161.633Z" transform="translate(0 0)" fill="#68ae42"/>
    <path id="Path_93" data-name="Path 93" d="M-928.878,165.016H-946.2c-.81,0-1.62-.012-2.429.006-.382.009-.519-.143-.518-.518,0-1.7-.021-1.421,1.351-1.422q11.868-.007,23.736-.018c4.93,0,9.859,0,14.788-.006.443,0,.62.146.612.6-.03,1.618.157,1.335-1.288,1.337q-9.464.016-18.927.005Z" transform="translate(-21.938 -19.775)" fill="#68ae42"/>
    <path id="Path_94" data-name="Path 94" d="M-928.934,174.568h-19.453c-.743,0-.759-.018-.759-.745,0-1.393-.092-1.2,1.23-1.2q16.168,0,32.336,0c2.086,0,4.172.024,6.258.01.476,0,.635.154.634.626,0,1.283.013,1.289-1.261,1.289q-9.493,0-18.986,0Z" transform="translate(-21.939 -23.335)" fill="#68ae42"/>
    <path id="Path_95" data-name="Path 95" d="M-928.926,145.917h-19.5c-.715,0-.721,0-.718-.721.008-1.373-.151-1.213,1.213-1.214q13.062-.006,26.124,0l12.415,0c.7,0,.724.027.722.728,0,1.415.115,1.2-1.217,1.205Q-919.406,145.923-928.926,145.917Z" transform="translate(-21.94 -12.666)" fill="#68ae42"/>
    <path id="Path_96" data-name="Path 96" d="M-928.869,182.181h19.5c.7,0,.7.005.7.688-.008,1.369.158,1.239-1.25,1.239q-14.4,0-28.8,0-4.861,0-9.721,0c-.672,0-.7-.026-.7-.7.007-1.448-.141-1.228,1.241-1.229Q-938.386,182.174-928.869,182.181Z" transform="translate(-21.94 -26.897)" fill="#68ae42"/>
    <path id="Path_97" data-name="Path 97" d="M-928.937,155.462h-14.639c-1.637,0-3.274-.015-4.911.008-.481.007-.683-.122-.669-.636.041-1.493-.187-1.293,1.287-1.294q19.189-.007,38.379,0c.83,0,.863.036.807.886-.067,1.036-.067,1.036-1.115,1.036h-19.139Z" transform="translate(-21.936 -16.226)" fill="#68ae42"/>
    <path id="Path_98" data-name="Path 98" d="M-928.937,193.654h-19.441c-.766,0-.77,0-.767-.778.006-1.284-.117-1.134,1.134-1.134q12.8,0,25.6,0l13.081,0c.639,0,.669.023.664.673-.013,1.4.187,1.233-1.238,1.234q-9.515.007-19.029,0Z" transform="translate(-21.94 -30.461)" fill="#68ae42"/>
    <path id="Path_99" data-name="Path 99" d="M-923.173,120.394a3.664,3.664,0,0,1,3.658-3.688,3.69,3.69,0,0,1,3.678,3.678,3.7,3.7,0,0,1-3.643,3.672A3.684,3.684,0,0,1-923.173,120.394Zm1.424-.006a2.217,2.217,0,0,0,2.225,2.235,2.235,2.235,0,0,0,2.26-2.261,2.24,2.24,0,0,0-2.285-2.237A2.224,2.224,0,0,0-921.749,120.388Z" transform="translate(-31.617 -2.505)" fill="#68ae42"/>
  </g>
</svg>
