<svg xmlns="http://www.w3.org/2000/svg" width="87.903" height="86.771" viewBox="0 0 87.903 86.771">
  <g id="Group_53" data-name="Group 53" transform="translate(814.398 -126.236)">
    <path id="Path_100" data-name="Path 100" d="M-788.059,223.779q-1.224-.35-2.436-.7l-2-.592c-1.452-.431-2.9-.861-4.362-1.269.051-.875.095-1.749.139-2.624.056-1.128.113-2.257.186-3.384a1.941,1.941,0,0,0-.882-1.8c-1.037-.779-2.08-1.618-3.1-2.495a1.954,1.954,0,0,0-1.29-.533,2.149,2.149,0,0,0-.6.092c-1.124.326-2.253.635-3.381.945q-1.216.333-2.429.673c-1.241-2.29-2.48-4.55-3.733-6.836l-.868-1.585q.339-.315.683-.627l.781-.7c1-.9,1.991-1.8,3-2.686a1.855,1.855,0,0,0,.663-1.829c-.184-1.216-.324-2.514-.444-4.085a1.829,1.829,0,0,0-1-1.583c-1.441-.8-2.874-1.618-4.335-2.451l-.923-.525,2.688-9.211,3.553.178c.257.013.514.029.77.045.624.038,1.269.077,1.917.08a1.891,1.891,0,0,0,1.376-.654c1.1-1.317,1.994-2.431,2.813-3.508a2.027,2.027,0,0,0,.31-1.634c-.4-1.548-.832-3.09-1.26-4.632l-.344-1.242,8.407-4.608,1.8,1.99.628.7c.561.628,1.14,1.278,1.741,1.9a1.954,1.954,0,0,0,1.351.549l.142-.006c1.53-.136,3.011-.3,4.4-.491a2.03,2.03,0,0,0,1.388-.906c.754-1.278,1.485-2.57,2.215-3.862,0,0,.8-1.416.821-1.446,0,0,3.11.9,4.2,1.216l1.632.48c1.127.333,2.255.666,3.387.98-.069,1.07-.122,2.141-.176,3.212-.047.937-.094,1.873-.152,2.81a1.868,1.868,0,0,0,.836,1.753c1.1.819,2.139,1.656,3.091,2.488a2.057,2.057,0,0,0,1.371.574h0a2.265,2.265,0,0,0,.637-.1c1.551-.449,3.107-.877,4.694-1.314l1.047-.289,1.062,1.938c1.142,2.083,2.274,4.148,3.4,6.218.054.1.1.187.148.265-.082.071-.175.154-.278.25-1.212,1.121-2.525,2.3-4.132,3.709a1.962,1.962,0,0,0-.707,1.949c.217,1.368.333,2.735.428,4.007a1.829,1.829,0,0,0,1,1.594c1.283.71,2.558,1.434,3.833,2.159l1.44.819-2.694,9.211-.935-.034c-1.262-.043-2.455-.082-3.645-.232a6.634,6.634,0,0,0-.812-.055,3.321,3.321,0,0,0-3.159,1.921,8.294,8.294,0,0,1-1.359,1.664l-.373.392a1.841,1.841,0,0,0-.452,1.924c.326,1.134.64,2.271.953,3.407.219.795.438,1.59.662,2.383-2.3,1.244-4.576,2.493-6.884,3.757l-1.54.843-1.844-2.05c-.764-.853-1.529-1.7-2.314-2.537a1.944,1.944,0,0,0-1.349-.544l-.142.006c-1.715.145-3.115.294-4.407.471a2.11,2.11,0,0,0-1.423.979c-.864,1.471-1.705,2.957-2.56,4.468l-.443.782Zm-6.449-10.742c-.056.82-.1,1.641-.138,2.461-.05.987-.1,1.975-.175,2.96a1.533,1.533,0,0,0,1.258,1.752c1.176.322,2.439.677,3.7,1.084a1.986,1.986,0,0,0,.615.107,1.572,1.572,0,0,0,1.38-.935c.524-.963,1.067-1.917,1.609-2.87q.539-.946,1.072-1.894c.553.044,1.1.066,1.636.066a22.4,22.4,0,0,0,6.172-.9l.048-.013c.011.011.025.025.041.043.974,1.107,1.964,2.2,2.969,3.31l1.562,1.728,1.6-.874c1.089-.591,2.149-1.165,3.192-1.766a1.61,1.61,0,0,0,.649-1.658c-.378-1.477-.886-3.42-1.458-5.343a.783.783,0,0,1-.028-.122c.011-.006.037-.034.083-.075a22.051,22.051,0,0,0,4.842-6.038l.019-.033h.055c1.456.1,2.915.166,4.4.235l2.376.115.5-1.689c.352-1.19.717-2.419,1.042-3.64a1.61,1.61,0,0,0-.8-1.612c-1.714-1.006-3.267-1.889-4.749-2.7-.046-.025-.077-.045-.1-.059,0-.013,0-.027,0-.046a21.727,21.727,0,0,0-.854-7.806l.043-.038c.628-.554,1.249-1.116,1.87-1.677.739-.668,1.477-1.337,2.227-1.99a1.482,1.482,0,0,0,.34-2.015c-.629-1.107-1.275-2.245-1.852-3.384a1.587,1.587,0,0,0-1.457-1,2.288,2.288,0,0,0-.645.1c-1.688.5-3.432.984-5.187,1.438a23.308,23.308,0,0,0-6.172-4.928c.055-.9.1-1.746.145-2.589.052-.979.106-1.959.171-2.937a1.471,1.471,0,0,0-1.174-1.671c-1.5-.4-2.719-.756-3.828-1.119a1.925,1.925,0,0,0-.6-.106,1.533,1.533,0,0,0-1.341.909c-.421.767-.853,1.528-1.284,2.289-.463.815-.925,1.63-1.374,2.452-.01.018-.019.033-.026.045h-.047c-.508-.032-1.017-.048-1.516-.048a22.015,22.015,0,0,0-6.31.909l-.011-.013c-.977-1.115-1.973-2.215-2.978-3.324l-1.583-1.752-5.78,3.166.63,2.282c.4,1.442.791,2.868,1.2,4.289l0,.021a22.256,22.256,0,0,0-4.966,6.168c-.719-.045-1.438-.08-2.156-.116-1.06-.053-2.12-.106-3.177-.188-.084-.007-.163-.01-.237-.01a1.644,1.644,0,0,0-1.7,1.427c-.265,1.077-.589,2.192-.99,3.41a1.625,1.625,0,0,0,.867,2.177c.868.459,1.741.959,2.585,1.442.672.384,1.344.769,2.024,1.141a.705.705,0,0,1,.074.045c0,.014,0,.043,0,.085a22.094,22.094,0,0,0,.858,7.774l0,0c-1.121.993-2.232,2-3.359,3.016l-1.723,1.556,3.169,5.773,2.282-.623c1.448-.394,2.865-.779,4.274-1.186l.032-.009a22.252,22.252,0,0,0,6.135,4.934l.036.021C-794.507,213-794.507,213.015-794.509,213.037Z" transform="translate(0 -10.89)" fill="#68ae42"/>
    <path id="Path_101" data-name="Path 101" d="M-725.345,168.426c-1.209-.084-2.411-.167-3.613-.254-.326-.023-.654-.051-.979-.079-.532-.045-1.064-.089-1.6-.117-.113-.758-.236-1.514-.359-2.271-.128-.784-.256-1.569-.371-2.355a1.98,1.98,0,0,0-1-1.469c-1.411-.9-2.827-1.862-4.329-2.932a1.964,1.964,0,0,0-1.187-.433,2.04,2.04,0,0,0-.477.059c-1.464.35-2.967.679-4.589,1.006-.907-1.83-1.8-3.672-2.7-5.538l-.338-.7.521-.422c1.091-.882,2.121-1.716,3.15-2.591a2.09,2.09,0,0,0,.7-1.6,17.83,17.83,0,0,1,.38-5.076,1.989,1.989,0,0,0-.455-1.648c-.9-1.026-1.827-2.034-2.764-3.056l-.44-.481,3.906-5.748.633.236c.995.371,2.024.755,3,1.174a3.419,3.419,0,0,0,1.372.314,3.25,3.25,0,0,0,1.739-.549,23.452,23.452,0,0,1,3.293-1.569l.734-.308a1.955,1.955,0,0,0,1.239-1.3c.38-1.254.777-2.5,1.181-3.78l.224-.7.666.046c1.263.088,2.518.175,3.772.266.319.022.638.05.957.078.516.044,1.031.088,1.548.115.108.736.225,1.471.342,2.205.124.784.249,1.569.363,2.355a2.123,2.123,0,0,0,1.088,1.574c1.41.9,2.824,1.856,4.2,2.854a2.114,2.114,0,0,0,1.28.469,2.209,2.209,0,0,0,.521-.065c.816-.2,1.635-.375,2.455-.554.691-.151,1.381-.3,2.069-.462.833,1.74,1.659,3.443,2.5,5.169l.53,1.09-.638.519c-.972.794-1.945,1.587-2.931,2.364a1.973,1.973,0,0,0-.828,1.843,14.179,14.179,0,0,1-.364,4.877,1.825,1.825,0,0,0,.5,1.835c.9.954,1.781,1.919,2.675,2.9l.489.533-.415.612c-1.166,1.721-2.321,3.426-3.495,5.116-1.691-.6-3.009-1.108-4.24-1.611a2.147,2.147,0,0,0-.826-.172,2.563,2.563,0,0,0-1.214.356c-1.344.7-2.821,1.411-4.514,2.157a1.974,1.974,0,0,0-1.221,1.3c-.376,1.242-.768,2.479-1.166,3.741l-.234.74Zm-5.439-7.566c.133.559.22,1.13.311,1.736.055.364.11.727.172,1.089.392,2.3.768,2.63,3.1,2.723l.148,0a1.452,1.452,0,0,0,1.488-1.138c.19-.64.392-1.277.593-1.914.212-.67.423-1.339.623-2.013l.008-.028.017,0a14.243,14.243,0,0,0,7.369-3.57l.05.019c1.038.415,2.083.812,3.141,1.212l1.859.708,2.215-3.264-1.362-1.491c-.756-.831-1.5-1.653-2.273-2.454-.014-.015-.026-.027-.034-.038a.5.5,0,0,1,.018-.051,13.781,13.781,0,0,0,.577-8.124l.038-.031c.875-.693,1.739-1.4,2.618-2.113l1.559-1.267-.311-.647c-.091-.189-.181-.369-.269-.542a9.739,9.739,0,0,1-.449-.969,1.574,1.574,0,0,0-1.532-1.18,2.382,2.382,0,0,0-.6.086c-1.181.309-2.427.587-3.812.851h0c.013,0,0-.01-.013-.016a15.2,15.2,0,0,0-6.745-4.58c-.134-.562-.225-1.142-.321-1.757-.055-.354-.111-.707-.172-1.06-.4-2.328-.75-2.634-3.089-2.73l-.152,0a1.443,1.443,0,0,0-1.488,1.129c-.168.573-.349,1.144-.53,1.713-.22.694-.44,1.388-.639,2.089a.773.773,0,0,1-.065.173h0c-.008,0-.047.014-.124.026a13.961,13.961,0,0,0-7.25,3.531l-.041-.015c-1.03-.413-2.069-.8-3.123-1.2l-1.883-.712-2.224,3.248,1.352,1.479c.748.821,1.485,1.629,2.238,2.423a1,1,0,0,1,.081.1c0,.01-.011.031-.021.058a13.857,13.857,0,0,0-.583,8.11c-.917.729-1.777,1.432-2.647,2.144l-1.556,1.269.311.646c.088.183.178.363.266.54.194.39.378.759.528,1.129A1.475,1.475,0,0,0-742,157.21a2.109,2.109,0,0,0,.5-.064c1.077-.26,2.5-.593,3.938-.87a.286.286,0,0,1,.043.009A15.165,15.165,0,0,0-730.783,160.859Z" transform="translate(-20.319 0)" fill="#68ae42"/>
    <path id="Path_102" data-name="Path 102" d="M-776.922,214.854a14.838,14.838,0,0,1-14.787-14.767A14.914,14.914,0,0,1-776.915,185.1h.076a14.9,14.9,0,0,1,14.872,14.817,14.942,14.942,0,0,1-14.9,14.932ZM-777.051,187a12.937,12.937,0,0,0-12.762,13.014,12.79,12.79,0,0,0,3.782,9.125,12.907,12.907,0,0,0,9.2,3.842,13.009,13.009,0,0,0,12.979-13A12.96,12.96,0,0,0-777.024,187Z" transform="translate(-6.828 -17.717)" fill="#68ae42"/>
    <path id="Path_103" data-name="Path 103" d="M-721.149,160.948a7.863,7.863,0,0,1-5.6-2.3,7.844,7.844,0,0,1-2.305-5.592,7.9,7.9,0,0,1,7.878-7.892,7.914,7.914,0,0,1,7.907,7.859,7.871,7.871,0,0,1-2.312,5.615A7.819,7.819,0,0,1-721.149,160.948Zm-.063-13.907a5.9,5.9,0,0,0-4.194,1.766,5.978,5.978,0,0,0-1.771,4.262,6,6,0,0,0,5.978,5.985,5.97,5.97,0,0,0,6.026-6.019,6.046,6.046,0,0,0-6.007-5.994Z" transform="translate(-25.685 -5.695)" fill="#68ae42"/>
  </g>
</svg>
