<svg xmlns="http://www.w3.org/2000/svg" width="92.556" height="95.191" viewBox="0 0 92.556 95.191">
  <g id="Group_44" data-name="Group 44" transform="translate(1736.631 -84.62)">
    <g id="Group_19" data-name="Group 19" transform="translate(-1727.464 171.125)">
      <path id="Path_61" data-name="Path 61" d="M-1647.835,235.158v6.37h-71.807v-6.37h71.807m1.158-1.158H-1720.8v8.686h74.124V234Z" transform="translate(1720.801 -234)" fill="#68ae42"/>
    </g>
    <g id="Group_20" data-name="Group 20" transform="translate(-1736.149 162.56)">
      <path id="Path_62" data-name="Path 62" d="M-1645.46,220.368V222.8l-4.026,4.973h-81.659l-3.495-4.932v-2.474h89.18m1.158-1.158h-91.5v4l4.054,5.721h82.81l4.633-5.721v-4Z" transform="translate(1735.798 -219.21)" fill="#68ae42"/>
    </g>
    <g id="Group_21" data-name="Group 21" transform="translate(-1728.041 140.676)">
      <path id="Path_63" data-name="Path 63" d="M-1648.252,182.578V203.3h-72.386V182.578h72.386m1.158-1.158h-74.7v23.042h74.7V181.42Z" transform="translate(1721.797 -181.42)" fill="#68ae42"/>
    </g>
    <g id="Group_22" data-name="Group 22" transform="translate(-1720.515 148.54)">
      <path id="Path_64" data-name="Path 64" d="M-1704.748,196.158a2.9,2.9,0,0,1,2.9,2.9,2.9,2.9,0,0,1-2.9,2.9,2.9,2.9,0,0,1-2.9-2.9,2.9,2.9,0,0,1,2.9-2.9m0-1.158a4.054,4.054,0,0,0-4.053,4.054,4.054,4.054,0,0,0,4.053,4.054,4.054,4.054,0,0,0,4.054-4.054,4.054,4.054,0,0,0-4.054-4.054Z" transform="translate(1708.801 -195)" fill="#68ae42"/>
    </g>
    <g id="Group_23" data-name="Group 23" transform="translate(-1706.617 148.54)">
      <path id="Path_65" data-name="Path 65" d="M-1680.747,196.158a2.9,2.9,0,0,1,2.9,2.9,2.9,2.9,0,0,1-2.9,2.9,2.9,2.9,0,0,1-2.9-2.9,2.9,2.9,0,0,1,2.9-2.9m0-1.158a4.054,4.054,0,0,0-4.054,4.054,4.054,4.054,0,0,0,4.054,4.054,4.054,4.054,0,0,0,4.054-4.054,4.054,4.054,0,0,0-4.054-4.054Z" transform="translate(1684.801 -195)" fill="#68ae42"/>
    </g>
    <g id="Group_24" data-name="Group 24" transform="translate(-1692.139 148.54)">
      <path id="Path_66" data-name="Path 66" d="M-1655.748,196.158a2.9,2.9,0,0,1,2.9,2.9,2.9,2.9,0,0,1-2.9,2.9,2.9,2.9,0,0,1-2.9-2.9,2.9,2.9,0,0,1,2.9-2.9m0-1.158a4.054,4.054,0,0,0-4.053,4.054,4.054,4.054,0,0,0,4.053,4.054,4.054,4.054,0,0,0,4.054-4.054,4.054,4.054,0,0,0-4.054-4.054Z" transform="translate(1659.801 -195)" fill="#68ae42"/>
    </g>
    <g id="Group_25" data-name="Group 25" transform="translate(-1720.556 148.499)">
      <path id="Path_67" data-name="Path 67" d="M-1701.092,194.929l-7.78,7.78.409.409,7.78-7.78-.409-.409Z" transform="translate(1708.872 -194.929)" fill="#68ae42"/>
    </g>
    <g id="Group_26" data-name="Group 26" transform="translate(-1706.348 148.499)">
      <path id="Path_68" data-name="Path 68" d="M-1676.556,194.929l-7.78,7.78.41.409,7.78-7.78-.41-.409Z" transform="translate(1684.336 -194.929)" fill="#68ae42"/>
    </g>
    <g id="Group_27" data-name="Group 27" transform="translate(-1692.18 148.499)">
      <path id="Path_69" data-name="Path 69" d="M-1652.092,194.929l-7.78,7.78.409.409,7.78-7.78-.409-.409Z" transform="translate(1659.872 -194.929)" fill="#68ae42"/>
    </g>
    <g id="Group_28" data-name="Group 28" transform="translate(-1674.598 148.999)">
      <path id="Path_70" data-name="Path 70" d="M-1627.579,196.95V201.7h-.772V196.95h.772m1.158-1.158h-3.088v7.07h3.088v-7.07Z" transform="translate(1629.509 -195.792)" fill="#68ae42"/>
    </g>
    <g id="Group_29" data-name="Group 29" transform="translate(-1669.096 148.999)">
      <path id="Path_71" data-name="Path 71" d="M-1618.079,196.95V201.7h-.772V196.95h.772m1.158-1.158h-3.088v7.07h3.088v-7.07Z" transform="translate(1620.009 -195.792)" fill="#68ae42"/>
    </g>
    <g id="Group_30" data-name="Group 30" transform="translate(-1663.233 148.999)">
      <path id="Path_72" data-name="Path 72" d="M-1607.954,196.95V201.7h-.772V196.95h.772m1.158-1.158h-3.088v7.07h3.088v-7.07Z" transform="translate(1609.884 -195.792)" fill="#68ae42"/>
    </g>
    <g id="Group_31" data-name="Group 31" transform="translate(-1736.631 127.884)">
      <path id="Path_73" data-name="Path 73" d="M-1645.812,160.488V171.3h-89.661V160.488h7.093l10.574,6.722.284.181h54.655l.3-.208,9.592-6.694h7.164m1.158-1.158h-8.687l-9.891,6.9h-53.954l-10.858-6.9h-8.588v13.128h91.977V159.33Z" transform="translate(1736.631 -159.33)" fill="#68ae42"/>
    </g>
    <g id="Group_32" data-name="Group 32" transform="translate(-1717.764 89.253)">
      <path id="Path_74" data-name="Path 74" d="M-1663.369,139.1h-40.681V115.576l8.252-6.445V92.62h7.383v6.636h5.425v.578a3.434,3.434,0,0,0,3.428,3.418,3.43,3.43,0,0,0,3.422-3.418v-.578h5.454V92.62h7.314Zm-39.523-1.158h38.365V93.778h-5v6.636h-5.492a4.592,4.592,0,0,1-4.543,4,4.6,4.6,0,0,1-4.548-4h-5.465V93.778h-5.067V109.7l-8.252,6.445Z" transform="translate(1704.05 -92.62)" fill="#68ae42"/>
    </g>
    <g id="Group_33" data-name="Group 33" transform="translate(-1703.286 84.62)">
      <path id="Path_75" data-name="Path 75" d="M-1659,97.047h-6.613v-.579a3.432,3.432,0,0,0-3.422-3.44,3.432,3.432,0,0,0-3.428,3.428v.579l-.579.012h-6.005V88.853a4.238,4.238,0,0,1,4.233-4.233h11.582A4.238,4.238,0,0,1-1659,88.853Zm-5.49-1.158h4.332V88.853a3.078,3.078,0,0,0-3.075-3.075h-11.582a3.078,3.078,0,0,0-3.075,3.075v7.036h4.3a4.593,4.593,0,0,1,4.55-4.019A4.59,4.59,0,0,1-1664.492,95.889Z" transform="translate(1679.05 -84.62)" fill="#68ae42"/>
    </g>
    <g id="Group_34" data-name="Group 34" transform="translate(-1703.286 95.889)">
      <path id="Path_76" data-name="Path 76" d="M-1663.235,116.994h-11.582a4.238,4.238,0,0,1-4.233-4.233V104.08h6.583v.578a3.433,3.433,0,0,0,3.428,3.418,3.43,3.43,0,0,0,3.422-3.418v-.578H-1659v8.681A4.238,4.238,0,0,1-1663.235,116.994Zm-14.657-11.756v7.522a3.078,3.078,0,0,0,3.075,3.075h11.582a3.078,3.078,0,0,0,3.075-3.075v-7.522h-4.335a4.592,4.592,0,0,1-4.543,4,4.6,4.6,0,0,1-4.548-4Z" transform="translate(1679.05 -104.08)" fill="#68ae42"/>
    </g>
    <g id="Group_35" data-name="Group 35" transform="translate(-1668.252 103.046)">
      <path id="Path_77" data-name="Path 77" d="M-1598.391,134.317h-16.144a4.022,4.022,0,0,1-4.017-4.017v-9.846a4.021,4.021,0,0,1,4.017-4.017h16.144a4.021,4.021,0,0,1,4.017,4.017V130.3A4.021,4.021,0,0,1-1598.391,134.317Zm-16.144-16.721a2.862,2.862,0,0,0-2.859,2.858V130.3a2.862,2.862,0,0,0,2.859,2.859h16.144a2.862,2.862,0,0,0,2.858-2.859v-9.846a2.861,2.861,0,0,0-2.858-2.858Z" transform="translate(1618.551 -116.438)" fill="#68ae42"/>
    </g>
    <g id="Group_36" data-name="Group 36" transform="translate(-1717.764 115.206)">
      <path id="Path_78" data-name="Path 78" d="M-1697.609,140.152h-6.442v-2.714h6.442Zm-5.284-1.158h4.126v-.4h-4.126Z" transform="translate(1704.051 -137.438)" fill="#68ae42"/>
    </g>
    <g id="Group_37" data-name="Group 37" transform="translate(-1650.517 108.013)">
      <path id="Path_79" data-name="Path 79" d="M-1581.484,127.73h-6.442v-2.714h6.442Zm-5.284-1.158h4.126v-.4h-4.126Z" transform="translate(1587.926 -125.016)" fill="#68ae42"/>
    </g>
    <g id="Group_38" data-name="Group 38" transform="translate(-1650.517 113.469)">
      <path id="Path_80" data-name="Path 80" d="M-1581.484,137.152h-6.442v-2.714h6.442Zm-5.284-1.158h4.126v-.4h-4.126Z" transform="translate(1587.926 -134.438)" fill="#68ae42"/>
    </g>
    <g id="Group_39" data-name="Group 39" transform="translate(-1652.894 119.767)">
      <path id="Path_81" data-name="Path 81" d="M-1589.315,154.252h-2.715v-8.939h2.715Zm-1.557-1.158h.4v-6.623h-.4Z" transform="translate(1592.03 -145.313)" fill="#68ae42"/>
    </g>
    <g id="Group_40" data-name="Group 40" transform="translate(-1717.764 121.16)">
      <path id="Path_82" data-name="Path 82" d="M-1697.609,150.433h-6.442v-2.714h6.442Zm-5.284-1.158h4.126v-.4h-4.126Z" transform="translate(1704.051 -147.719)" fill="#68ae42"/>
    </g>
    <g id="Group_41" data-name="Group 41" transform="translate(-1717.764 127.114)">
      <path id="Path_83" data-name="Path 83" d="M-1697.609,160.715h-6.442V158h6.442Zm-5.284-1.158h4.126v-.4h-4.126Z" transform="translate(1704.051 -158)" fill="#68ae42"/>
    </g>
    <g id="Group_42" data-name="Group 42" transform="translate(-1697.86 91.87)">
      <path id="Path_84" data-name="Path 84" d="M-1665.094,106.313a4.594,4.594,0,0,1-4.587-4.573,4.6,4.6,0,0,1,4.587-4.6,4.589,4.589,0,0,1,4.581,4.586v.012A4.591,4.591,0,0,1-1665.094,106.313Zm0-8.015a3.432,3.432,0,0,0-3.428,3.428,3.436,3.436,0,0,0,3.428,3.428,3.43,3.43,0,0,0,3.422-3.418l.579-.01h-.579A3.429,3.429,0,0,0-1665.094,98.3Z" transform="translate(1669.68 -97.14)" fill="#68ae42"/>
    </g>
    <g id="Group_43" data-name="Group 43" transform="translate(-1701.442 108.221)">
      <path id="Path_85" data-name="Path 85" d="M-1659.251,139.816h-16.614v-4.4l3.921-3.921h3.681v-6.117h1.158v6.117h3.974l3.879,4.037Zm-15.455-1.158h14.3V136l-3.215-3.345h-7.84l-3.242,3.242Z" transform="translate(1675.865 -125.375)" fill="#68ae42"/>
    </g>
  </g>
</svg>
