<svg id="Layer_2" data-name="Layer 2" xmlns="http://www.w3.org/2000/svg" width="120.631" height="124.039" viewBox="0 0 120.631 124.039">
  <g id="Layer_1" data-name="Layer 1">
    <g id="Group_44" data-name="Group 44">
      <g id="Group_19" data-name="Group 19" transform="translate(11.887 112.126)">
        <path id="Path_7301" data-name="Path 7301" d="M9.17,98.413V86.5H105.9V98.413ZM103.8,96.261V88.652H11.322v7.57Z" transform="translate(-9.17 -86.5)" fill="#fff"/>
        <path id="Path_61" data-name="Path 61" d="M104,88.251v8.257H10.924V88.251H104m1.5-1.491H9.42V98.012H105.5V86.76Z" transform="translate(-9.096 -86.423)" fill="#fff"/>
      </g>
      <g id="Group_20" data-name="Group 20" transform="translate(0.622 101.03)">
        <path id="Path_7302" data-name="Path 7302" d="M5.885,91.188.48,83.553V77.94H119.412v.324h.324v5.3l-6.183,7.622Zm106.644-2.152,5.055-6.235V80.092H2.632v2.774L7,89.036Z" transform="translate(-0.48 -77.94)" fill="#fff"/>
        <path id="Path_62" data-name="Path 62" d="M117.834,79.694v3.15l-5.185,6.481H6.771L2.234,82.934V79.694h115.6m1.5-1.5H.73v5.185L5.98,90.79H113.323l6.015-7.415V78.19Z" transform="translate(-0.406 -77.866)" fill="#fff"/>
      </g>
      <g id="Group_21" data-name="Group 21" transform="translate(11.135 72.668)">
        <path id="Path_7303" data-name="Path 7303" d="M8.59,86.574V56.06h97.479V86.574Zm95.34-2.152V58.2H10.742V84.422Z" transform="translate(-8.59 -56.06)" fill="#fff"/>
        <path id="Path_63" data-name="Path 63" d="M104.18,57.8V84.672H10.344V57.8H104.18m1.491-1.491H8.84V86.124h96.831Z" transform="translate(-8.516 -55.986)" fill="#fff"/>
      </g>
      <g id="Group_22" data-name="Group 22" transform="translate(20.87 82.844)">
        <path id="Path_7304" data-name="Path 7304" d="M21.7,75.084A5.587,5.587,0,1,1,27.274,69.5,5.587,5.587,0,0,1,21.7,75.084Zm0-9.074a3.4,3.4,0,1,1,0,.065Z" transform="translate(-16.1 -63.91)" fill="#fff"/>
        <path id="Path_64" data-name="Path 64" d="M21.641,65.674A3.759,3.759,0,0,1,25.4,69.433h0a3.759,3.759,0,0,1-3.759,3.759h0a3.759,3.759,0,0,1-3.759-3.759h0a3.759,3.759,0,0,1,3.759-3.759h0m0-1.5a5.263,5.263,0,1,0,5.185,5.185A5.263,5.263,0,0,0,21.641,64.17Z" transform="translate(-16.041 -63.833)" fill="#fff"/>
      </g>
      <g id="Group_23" data-name="Group 23" transform="translate(38.888 82.844)">
        <path id="Path_7305" data-name="Path 7305" d="M35.6,75.084A5.587,5.587,0,1,1,41.174,69.5,5.587,5.587,0,0,1,35.6,75.084Zm0-9.074a1.441,1.441,0,1,1,0,.065Z" transform="translate(-30 -63.91)" fill="#fff"/>
        <path id="Path_65" data-name="Path 65" d="M35.541,65.674A3.759,3.759,0,0,1,39.3,69.433h0a3.759,3.759,0,0,1-3.759,3.759h0a3.759,3.759,0,0,1-3.759-3.759h0a3.759,3.759,0,0,1,3.759-3.759h0m0-1.5a5.263,5.263,0,1,0,5.185,5.185,5.263,5.263,0,0,0-5.185-5.185Z" transform="translate(-29.941 -63.833)" fill="#fff"/>
      </g>
      <g id="Group_24" data-name="Group 24" transform="translate(57.658 82.844)">
        <path id="Path_7306" data-name="Path 7306" d="M50.067,75.084A5.587,5.587,0,1,1,55.654,69.5,5.587,5.587,0,0,1,50.067,75.084Zm0-9.074a3.4,3.4,0,1,1,0,.065Z" transform="translate(-44.48 -63.91)" fill="#fff"/>
        <path id="Path_66" data-name="Path 66" d="M50.006,65.674a3.759,3.759,0,0,1,3.759,3.759h0a3.759,3.759,0,0,1-3.759,3.759h0a3.759,3.759,0,0,1-3.759-3.759h0a3.759,3.759,0,0,1,3.759-3.759h0m0-1.5a5.263,5.263,0,1,0,5.25,5.185A5.263,5.263,0,0,0,50.006,64.17Z" transform="translate(-44.406 -63.833)" fill="#fff"/>
      </g>
      <g id="Group_25" data-name="Group 25" transform="translate(20.702 82.665)">
        <rect id="Rectangle_861" data-name="Rectangle 861" width="14.907" height="1.4" transform="translate(0 10.541) rotate(-45)" fill="#fff"/>
        <path id="Path_67" data-name="Path 67" d="M26.415,64.13,16.33,74.215l.519.531L26.933,64.661Z" transform="translate(-15.864 -63.666)" fill="#fff"/>
      </g>
      <g id="Group_26" data-name="Group 26" transform="translate(39.119 82.668)">
        <rect id="Rectangle_862" data-name="Rectangle 862" width="14.907" height="1.4" transform="translate(0 10.541) rotate(-45)" fill="#fff"/>
        <path id="Path_68" data-name="Path 68" d="M40.615,64.13,30.53,74.215l.531.531L41.146,64.661Z" transform="translate(-30.074 -63.669)" fill="#fff"/>
      </g>
      <g id="Group_27" data-name="Group 27" transform="translate(57.478 82.677)">
        <rect id="Rectangle_863" data-name="Rectangle 863" width="14.907" height="1.4" transform="translate(0 10.541) rotate(-45)" fill="#fff"/>
        <path id="Path_69" data-name="Path 69" d="M54.785,64.13,44.7,74.215l.531.531L55.316,64.661Z" transform="translate(-44.235 -63.678)" fill="#fff"/>
      </g>
      <g id="Group_28" data-name="Group 28" transform="translate(80.368 83.453)">
        <path id="Path_7307" data-name="Path 7307" d="M62,74.257V64.38h4.654v9.878Zm2.593-2.217V66.48h-.35v5.509Z" transform="translate(-62 -64.38)" fill="#fff"/>
        <path id="Path_70" data-name="Path 70" d="M64.782,66.134v6.157h-1V66.134h1m1.5-1.5H62.28v9.165h4.005Z" transform="translate(-61.917 -64.306)" fill="#fff"/>
      </g>
      <g id="Group_29" data-name="Group 29" transform="translate(87.55 83.453)">
        <path id="Path_7308" data-name="Path 7308" d="M67.54,74.257V64.38h4.641v9.878Zm2.5-2.152V66.48h-.363v5.509Z" transform="translate(-67.54 -64.38)" fill="#fff"/>
        <path id="Path_71" data-name="Path 71" d="M70.292,66.134v6.157H69.281V66.134h1.011m1.491-1.5H67.79v9.165h3.992Z" transform="translate(-67.466 -64.306)" fill="#fff"/>
      </g>
      <g id="Group_30" data-name="Group 30" transform="translate(95.146 83.453)">
        <path id="Path_7309" data-name="Path 7309" d="M73.4,74.257V64.38h4.667v9.878Zm2.5-2.152V66.48h-.35v5.509Z" transform="translate(-73.4 -64.38)" fill="#fff"/>
        <path id="Path_72" data-name="Path 72" d="M76.152,66.134v6.157h-1V66.134h1m1.5-1.5H73.65v9.165h4.005Z" transform="translate(-73.326 -64.306)" fill="#fff"/>
      </g>
      <g id="Group_31" data-name="Group 31" transform="translate(0 56.089)">
        <path id="Path_7310" data-name="Path 7310" d="M0,60.925V43.27H11.55l14.077,8.944H95.366l12.82-8.944h11.666V60.925Zm117.727-2.152V45.409h-8.841l-12.82,8.957H25L10.928,45.409H2.152V58.773Z" transform="translate(0 -43.27)" fill="#fff"/>
        <path id="Path_73" data-name="Path 73" d="M117.977,45.014V59.026H1.754V45.014h9.191l13.714,8.711.363.246H95.849l.389-.272,12.444-8.685h9.281m1.5-1.491H108.216L95.4,52.467H25.462L11.385,43.523H.25V60.53H119.506V43.51Z" transform="translate(0.074 -43.199)" fill="#fff"/>
      </g>
      <g id="Group_32" data-name="Group 32" transform="translate(24.46 6.002)">
        <path id="Path_7311" data-name="Path 7311" d="M18.87,65.528V34.561L29.564,26.2V4.63H39.779v8.607h7.039v1.076a4.122,4.122,0,0,0,8.231,0V13.237h7.065V4.63H72.185V65.554ZM70.1,63.441V6.782H64.265v8.607H57.1a6.261,6.261,0,0,1-12.34,0H37.627V6.782H31.716V27.25L21.009,35.611V63.441Z" transform="translate(-18.87 -4.63)" fill="#fff"/>
        <path id="Path_74" data-name="Path 74" d="M71.852,65.13H19.12V34.642l10.694-8.361V4.88h9.566v8.607h7.039v.752a4.446,4.446,0,0,0,8.879,0v-.752h7.065V4.88h9.489ZM20.624,63.639H70.348V6.332H63.867v8.607H56.751a5.937,5.937,0,0,1-11.783,0H37.877V6.332H31.318v20.74L20.611,35.433Z" transform="translate(-18.796 -4.556)" fill="#fff"/>
      </g>
      <g id="Group_33" data-name="Group 33" transform="translate(43.23)">
        <path id="Path_7312" data-name="Path 7312" d="M50.759,16.761V15.685a4.122,4.122,0,1,0-8.231,0v1.063H33.35V5.807A5.82,5.82,0,0,1,39.157,0H54.168a5.846,5.846,0,0,1,5.82,5.807V16.761Zm7.078-2.152v-8.8a3.668,3.668,0,0,0-3.668-3.655H39.157a3.655,3.655,0,0,0-3.668,3.655v8.8h4.965a6.3,6.3,0,0,1,6.17-5.185h0a6.3,6.3,0,0,1,6.17,5.185Z" transform="translate(-33.35)" fill="#fff"/>
        <path id="Path_75" data-name="Path 75" d="M59.59,16.363H50.97v-.752a4.446,4.446,0,1,0-8.879,0v.752H33.6V5.733A5.483,5.483,0,0,1,39.083.25H54.094a5.509,5.509,0,0,1,5.5,5.483Zm-7.116-1.5h5.613V5.785a3.992,3.992,0,0,0-3.993-3.98H39.083a3.98,3.98,0,0,0-3.98,3.98v9.074h5.574a5.937,5.937,0,0,1,11.783,0Z" transform="translate(-33.276 0.074)" fill="#fff"/>
      </g>
      <g id="Group_34" data-name="Group 34" transform="translate(43.23 14.609)">
        <path id="Path_7313" data-name="Path 7313" d="M39.157,28.653a5.82,5.82,0,0,1-5.807-5.807V11.27h9.178v1.076a4.122,4.122,0,0,0,8.231,0V11.27h9.229V22.846a5.833,5.833,0,0,1-5.82,5.807Zm-3.668-5.807a3.668,3.668,0,0,0,3.668,3.63H54.168a3.681,3.681,0,0,0,3.668-3.655v-9.4H52.807a6.261,6.261,0,0,1-12.34,0H35.489Z" transform="translate(-33.35 -11.27)" fill="#fff"/>
        <path id="Path_76" data-name="Path 76" d="M54.094,28.255H39.083A5.483,5.483,0,0,1,33.6,22.772V11.52h8.529v.752a4.446,4.446,0,0,0,8.879,0V11.52H59.59V22.772a5.5,5.5,0,0,1-5.5,5.483Zm-19-15.231v9.748a3.98,3.98,0,0,0,3.992,3.98H54.094a3.992,3.992,0,0,0,3.992-3.98V13.024H52.461a5.937,5.937,0,0,1-11.783,0Z" transform="translate(-33.276 -11.196)" fill="#fff"/>
      </g>
      <g id="Group_35" data-name="Group 35" transform="translate(88.639 23.877)">
        <path id="Path_7314" data-name="Path 7314" d="M73.915,42.245a5.535,5.535,0,0,1-5.535-5.522V23.955A5.548,5.548,0,0,1,73.9,18.42H94.837a5.561,5.561,0,0,1,5.535,5.535V36.723a5.548,5.548,0,0,1-5.535,5.522Zm0-21.673a3.4,3.4,0,0,0-3.435,3.383V36.723a3.4,3.4,0,0,0,3.383,3.383H94.837a3.4,3.4,0,0,0,3.383-3.383V23.955a3.4,3.4,0,0,0-3.383-3.383Z" transform="translate(-68.38 -18.42)" fill="#fff"/>
        <path id="Path_77" data-name="Path 77" d="M94.757,41.854H73.835a5.185,5.185,0,0,1-5.185-5.185V23.875a5.185,5.185,0,0,1,5.185-5.185H94.757a5.185,5.185,0,0,1,5.185,5.185V36.643a5.185,5.185,0,0,1-5.185,5.211ZM73.835,20.168a3.72,3.72,0,0,0-3.707,3.707V36.643a3.707,3.707,0,0,0,3.707,3.707H94.757a3.72,3.72,0,0,0,3.707-3.707V23.875a3.72,3.72,0,0,0-3.707-3.707Z" transform="translate(-68.3 -18.34)" fill="#fff"/>
      </g>
      <g id="Group_36" data-name="Group 36" transform="translate(24.46 39.653)">
        <rect id="Rectangle_864" data-name="Rectangle 864" width="8.996" height="4.161" fill="#fff"/>
        <path id="Path_78" data-name="Path 78" d="M27.468,34.353H19.12V30.84h8.348Zm-6.844-1.5h5.341v-.506H20.624Z" transform="translate(-18.796 -30.516)" fill="#fff"/>
      </g>
      <g id="Group_37" data-name="Group 37" transform="translate(111.621 30.32)">
        <rect id="Rectangle_865" data-name="Rectangle 865" width="8.996" height="4.161" fill="#fff"/>
        <path id="Path_79" data-name="Path 79" d="M94.721,27.166H86.36V23.64h8.361Zm-6.857-1.5h5.354v-.519H87.864Z" transform="translate(-86.036 -23.316)" fill="#fff"/>
      </g>
      <g id="Group_38" data-name="Group 38" transform="translate(111.621 37.397)">
        <rect id="Rectangle_866" data-name="Rectangle 866" width="8.996" height="4.161" fill="#fff"/>
        <path id="Path_80" data-name="Path 80" d="M94.721,32.613H86.36V29.1h8.361Zm-6.857-1.491h5.354V30.6H87.864Z" transform="translate(-86.036 -28.776)" fill="#fff"/>
      </g>
      <g id="Group_39" data-name="Group 39" transform="translate(108.549 45.564)">
        <rect id="Rectangle_867" data-name="Rectangle 867" width="4.161" height="12.237" fill="#fff"/>
        <path id="Path_81" data-name="Path 81" d="M87.5,46.989H84V35.4h3.5Zm-2.009-1.5h.519V36.9h-.519Z" transform="translate(-83.663 -35.076)" fill="#fff"/>
      </g>
      <g id="Group_40" data-name="Group 40" transform="translate(24.46 47.365)">
        <rect id="Rectangle_868" data-name="Rectangle 868" width="8.996" height="4.161" fill="#fff"/>
        <path id="Path_82" data-name="Path 82" d="M27.468,40.3H19.12V36.79h8.348Zm-6.844-1.491h5.341v-.454H20.624Z" transform="translate(-18.796 -36.466)" fill="#fff"/>
      </g>
      <g id="Group_41" data-name="Group 41" transform="translate(24.46 55.078)">
        <rect id="Rectangle_869" data-name="Rectangle 869" width="8.996" height="4.161" fill="#fff"/>
        <path id="Path_83" data-name="Path 83" d="M27.468,46.266H19.12V42.74h8.348Zm-6.844-1.5h5.341v-.519H20.624Z" transform="translate(-18.796 -42.416)" fill="#fff"/>
      </g>
      <g id="Group_42" data-name="Group 42" transform="translate(50.243 9.385)">
        <path id="Path_7315" data-name="Path 7315" d="M45.047,19.788a6.274,6.274,0,1,1,6.261-6.261A6.274,6.274,0,0,1,45.047,19.788Zm0-10.37a4.122,4.122,0,1,0,4.109,4.122h0a4.135,4.135,0,0,0-4.109-4.122Z" transform="translate(-38.76 -7.24)" fill="#fff"/>
        <path id="Path_84" data-name="Path 84" d="M44.973,19.39a5.95,5.95,0,1,1,5.937-5.937h0A5.95,5.95,0,0,1,44.973,19.39Zm0-10.37a4.446,4.446,0,1,0,4.394,4.446h0A4.446,4.446,0,0,0,44.934,9.02Z" transform="translate(-38.686 -7.166)" fill="#fff"/>
      </g>
      <g id="Group_43" data-name="Group 43" transform="translate(45.616 30.592)">
        <path id="Path_7316" data-name="Path 7316" d="M35.19,42.966V36.809l5.276-5.276h4.576V23.6h2.152v7.933h4.965l5.185,5.431v6Zm20.04-2.152V37.833l-3.98-4.148H41.425L37.407,37.7v3.111Z" transform="translate(-35.19 -23.6)" fill="#fff"/>
        <path id="Path_85" data-name="Path 85" d="M56.971,42.568H35.44v-5.7l5.081-5.042H45.24V23.85H46.8v7.972H51.98l5.029,5.185Zm-20.027-1.5H55.48V37.629l-4.174-4.342H41.144l-4.2,4.2Z" transform="translate(-35.116 -23.526)" fill="#fff"/>
      </g>
    </g>
  </g>
</svg>
