<svg xmlns="http://www.w3.org/2000/svg" width="51.043" height="94.992" viewBox="0 0 51.043 94.992">
  <g id="Group_51" data-name="Group 51" transform="translate(1114.237 -104.003)">
    <g id="Group_45" data-name="Group 45" transform="translate(-1114.201 112.759)">
      <path id="Path_86" data-name="Path 86" d="M-1088.7,170.527c-10.1,0-19.22-1.975-23.241-5.031a4.738,4.738,0,0,1-2.244-3.681V117.289h1.318c0,3.571,9.711,7.394,24.167,7.394s24.167-3.824,24.167-7.394h1.318v44.525a4.739,4.739,0,0,1-2.245,3.682C-1069.477,168.552-1078.6,170.527-1088.7,170.527Zm-24.167-50.368v41.655a3.535,3.535,0,0,0,1.723,2.632c3.807,2.893,12.617,4.763,22.444,4.763s18.637-1.87,22.444-4.763a3.536,3.536,0,0,0,1.723-2.632V120.159c-3.6,3.707-14.026,5.842-24.167,5.842S-1109.261,123.866-1112.864,120.159Z" transform="translate(1114.182 -117.289)" fill="#68ae42"/>
    </g>
    <g id="Group_46" data-name="Group 46" transform="translate(-1114.201 163.604)">
      <path id="Path_87" data-name="Path 87" d="M-1088.7,229.83c-12.528,0-25.485-3.262-25.485-8.719V194.439h1.318c0,3.571,9.711,7.395,24.167,7.395s24.167-3.824,24.167-7.395h1.318v26.672C-1063.211,226.568-1076.17,229.83-1088.7,229.83Zm-24.167-32.521v23.8c0,3.574,9.711,7.4,24.167,7.4s24.167-3.827,24.167-7.4v-23.8c-3.6,3.706-14.026,5.842-24.167,5.842S-1109.261,201.016-1112.864,197.309Z" transform="translate(1114.182 -194.439)" fill="#68ae42"/>
    </g>
    <g id="Group_47" data-name="Group 47" transform="translate(-1114.237 104.003)">
      <path id="Path_88" data-name="Path 88" d="M-1088.716,121.508c-12.546,0-25.521-3.273-25.521-8.749s12.976-8.756,25.521-8.756,25.522,3.275,25.522,8.756S-1076.171,121.508-1088.716,121.508Zm0-16.114c-14.434,0-24.131,3.808-24.131,7.365s9.7,7.358,24.131,7.358,24.131-3.8,24.131-7.358S-1074.281,105.394-1088.716,105.394Z" transform="translate(1114.237 -104.003)" fill="#68ae42"/>
    </g>
    <g id="Group_48" data-name="Group 48" transform="translate(-1114.237 157.284)">
      <path id="Path_89" data-name="Path 89" d="M-1088.716,199.918c-12.546,0-25.521-3.272-25.521-8.749v-6.32h1.391a3.5,3.5,0,0,0,1.708,2.6c3.8,2.889,12.6,4.756,22.423,4.756s18.621-1.866,22.421-4.755a3.505,3.505,0,0,0,1.71-2.6h1.391v6.32C-1063.194,196.646-1076.171,199.918-1088.716,199.918Zm-24.131-12.11v3.361c0,3.554,9.7,7.358,24.131,7.358s24.131-3.8,24.131-7.358v-3.361a8.272,8.272,0,0,1-.869.751c-4.026,3.061-13.158,5.038-23.262,5.038s-19.236-1.978-23.264-5.038A8.327,8.327,0,0,1-1112.846,187.808Z" transform="translate(1114.237 -184.849)" fill="#68ae42"/>
    </g>
    <g id="Group_49" data-name="Group 49" transform="translate(-1114.237 145.185)">
      <path id="Path_90" data-name="Path 90" d="M-1088.716,181.559c-12.546,0-25.521-3.272-25.521-8.749v-6.32h1.391a3.5,3.5,0,0,0,1.708,2.6c3.8,2.889,12.6,4.756,22.423,4.756s18.621-1.866,22.421-4.755a3.5,3.5,0,0,0,1.71-2.6h1.391v6.32C-1063.194,178.287-1076.171,181.559-1088.716,181.559Zm-24.131-12.11v3.361c0,3.554,9.7,7.358,24.131,7.358s24.131-3.8,24.131-7.358v-3.361a8.35,8.35,0,0,1-.869.752c-4.026,3.06-13.158,5.038-23.262,5.038s-19.236-1.978-23.264-5.038A8.252,8.252,0,0,1-1112.846,169.449Z" transform="translate(1114.237 -166.49)" fill="#68ae42"/>
    </g>
    <g id="Group_50" data-name="Group 50" transform="translate(-1114.237 133.01)">
      <path id="Path_91" data-name="Path 91" d="M-1088.716,163.086c-12.546,0-25.521-3.272-25.521-8.749v-6.32h1.391a3.5,3.5,0,0,0,1.708,2.6c3.8,2.889,12.6,4.756,22.423,4.756s18.621-1.866,22.422-4.755a3.506,3.506,0,0,0,1.709-2.6h1.391v6.32C-1063.194,159.814-1076.171,163.086-1088.716,163.086Zm-24.131-12.11v3.361c0,3.554,9.7,7.358,24.131,7.358s24.131-3.8,24.131-7.358v-3.361a8.35,8.35,0,0,1-.869.752c-4.027,3.06-13.158,5.038-23.262,5.038s-19.236-1.978-23.264-5.038A8.25,8.25,0,0,1-1112.846,150.976Z" transform="translate(1114.237 -148.017)" fill="#68ae42"/>
    </g>
  </g>
</svg>
