<svg xmlns="http://www.w3.org/2000/svg" width="136.015" height="92.563" viewBox="0 0 136.015 92.563">
  <g id="Group_175" data-name="Group 175" transform="translate(348 -45.747)">
    <g id="Group_157" data-name="Group 157" transform="translate(-348 75.519)">
      <path id="Path_7253" data-name="Path 7253" d="M-320.213,128.3A27.818,27.818,0,0,1-348,100.513a27.818,27.818,0,0,1,27.787-27.787c.436,0,.884.011,1.32.023l.644.017v55.5l-.646.017C-319.33,128.289-319.777,128.3-320.213,128.3Zm0-54.251a26.494,26.494,0,0,0-26.463,26.464,26.493,26.493,0,0,0,26.463,26.463c.212,0,.426,0,.64-.007V74.057C-319.787,74.052-320,74.049-320.213,74.049Z" transform="translate(348 -72.726)" fill="#68ae42"/>
    </g>
    <g id="Group_158" data-name="Group 158" transform="translate(-303.353 78.585)">
      <path id="Path_7254" data-name="Path 7254" d="M-299.409,77h-6.708a3.569,3.569,0,0,1-.937-.12l-.488-.134V75.575l.662-.071h8.9V76.67l-.488.205A3.609,3.609,0,0,1-299.409,77Z" transform="translate(307.542 -75.504)" fill="#68ae42"/>
    </g>
    <g id="Group_159" data-name="Group 159" transform="translate(-319.573 117.112)">
      <path id="Path_7255" data-name="Path 7255" d="M-321.578,131.615h-.662v-21.2h32.852l-.437.94A35.13,35.13,0,0,1-321.578,131.615Zm.662-19.875v18.545a33.815,33.815,0,0,0,29.434-18.545Z" transform="translate(322.24 -110.417)" fill="#68ae42"/>
    </g>
    <g id="Group_160" data-name="Group 160" transform="translate(-319.573 68.302)">
      <path id="Path_7256" data-name="Path 7256" d="M-299.938,87.384h-22.3v-21.2h.662a34.831,34.831,0,0,1,14.127,2.971l.4.173v4.846a2.454,2.454,0,0,0,1.862,2.381l.5.126v9.246h5.008l.2.262a1.437,1.437,0,0,1,.136.223l.494.964Zm-20.978-1.323h14.9V77.677a3.773,3.773,0,0,1-2.362-3.5V70.2a33.486,33.486,0,0,0-12.536-2.682Z" transform="translate(322.24 -66.186)" fill="#68ae42"/>
    </g>
    <g id="Group_161" data-name="Group 161" transform="translate(-298.662 78.543)">
      <path id="Path_7257" data-name="Path 7257" d="M-291.349,86.423H-302.3l-.185-.36-.8-1.062,1.314-.033h2.229V75.576h.578l.323-.11.322.287a34.968,34.968,0,0,1,6.737,9.73Zm-7.075-1.323h4.979a33.556,33.556,0,0,0-4.979-7.3Z" transform="translate(303.291 -75.466)" fill="#68ae42"/>
    </g>
    <g id="Group_169" data-name="Group 169" transform="translate(-332.363 88.177)">
      <g id="Group_164" data-name="Group 164" transform="translate(3.627 6.245)">
        <g id="Group_162" data-name="Group 162">
          <path id="Path_7258" data-name="Path 7258" d="M-327.269,96.4a3.278,3.278,0,0,1-3.274-3.274,3.277,3.277,0,0,1,3.274-3.273,3.277,3.277,0,0,1,3.274,3.273A3.278,3.278,0,0,1-327.269,96.4Zm0-5.224a1.953,1.953,0,0,0-1.95,1.95,1.952,1.952,0,0,0,1.95,1.95,1.952,1.952,0,0,0,1.95-1.95A1.953,1.953,0,0,0-327.269,91.178Z" transform="translate(330.543 -89.855)" fill="#68ae42"/>
        </g>
        <g id="Group_163" data-name="Group 163" transform="translate(0 11.222)">
          <path id="Path_7259" data-name="Path 7259" d="M-327.269,106.571a3.277,3.277,0,0,1-3.274-3.273,3.278,3.278,0,0,1,3.274-3.274,3.278,3.278,0,0,1,3.274,3.274A3.277,3.277,0,0,1-327.269,106.571Zm0-5.224a1.953,1.953,0,0,0-1.95,1.951,1.952,1.952,0,0,0,1.95,1.949,1.952,1.952,0,0,0,1.95-1.949A1.953,1.953,0,0,0-327.269,101.347Z" transform="translate(330.543 -100.024)" fill="#68ae42"/>
        </g>
      </g>
      <g id="Group_165" data-name="Group 165" transform="translate(12.79)">
        <path id="Path_7260" data-name="Path 7260" d="M-279.975,114.455H-322.24V84.2h42.916a2.01,2.01,0,0,1,2.008,2.008V111.8A2.662,2.662,0,0,1-279.975,114.455Zm-40.941-1.323h40.941a1.337,1.337,0,0,0,1.335-1.336V86.2a.686.686,0,0,0-.684-.685h-41.592Z" transform="translate(322.24 -84.196)" fill="#68ae42"/>
      </g>
      <g id="Group_166" data-name="Group 166">
        <path id="Path_7261" data-name="Path 7261" d="M-319.716,114.455h-2.935a11.191,11.191,0,0,1-11.179-11.179v-7.9A11.191,11.191,0,0,1-322.651,84.2h2.935Zm-2.935-28.936a9.867,9.867,0,0,0-9.854,9.856v7.9a9.867,9.867,0,0,0,9.854,9.856h1.611V85.519Z" transform="translate(333.83 -84.196)" fill="#68ae42"/>
      </g>
      <g id="Group_167" data-name="Group 167" transform="translate(56.39 2.495)">
        <path id="Path_7262" data-name="Path 7262" d="M-277.72,111.726h-5.01V86.457h5.385a1.938,1.938,0,0,1,1.942,1.93v21.021A2.319,2.319,0,0,1-277.72,111.726Zm-3.686-1.323h3.686a1,1,0,0,0,.993-.994V88.387a.606.606,0,0,0-.618-.607h-4.061Z" transform="translate(282.73 -86.457)" fill="#68ae42"/>
      </g>
      <g id="Group_168" data-name="Group 168" transform="translate(62.395 4.345)">
        <path id="Path_7263" data-name="Path 7263" d="M-274.455,109.7a2.835,2.835,0,0,1-1.912-.742,2.833,2.833,0,0,1-.921-2.088V90.963a2.838,2.838,0,0,1,.917-2.085,2.865,2.865,0,0,1,2.154-.736l52.323,4.465a2.813,2.813,0,0,1,2.59,2.821v6.7a2.817,2.817,0,0,1-2.575,2.82l-52.323,4.741C-274.286,109.7-274.371,109.7-274.455,109.7Zm-.007-20.244a1.485,1.485,0,0,0-1.014.4,1.485,1.485,0,0,0-.488,1.109v15.908a1.489,1.489,0,0,0,.489,1.111,1.489,1.489,0,0,0,1.153.388L-222,103.631a1.5,1.5,0,0,0,1.371-1.5v-6.7a1.5,1.5,0,0,0-1.378-1.5l-52.322-4.464C-274.373,89.459-274.419,89.457-274.462,89.457Z" transform="translate(277.289 -88.134)" fill="#68ae42"/>
      </g>
    </g>
    <g id="Group_170" data-name="Group 170" transform="translate(-305.713 45.747)">
      <path id="Path_7264" data-name="Path 7264" d="M-305.994,80.1l-.823-.141a3.779,3.779,0,0,1-2.863-3.666V49.531a3.789,3.789,0,0,1,3.785-3.784h6.709a3.789,3.789,0,0,1,3.785,3.784V76.292a3.783,3.783,0,0,1-2.759,3.639l-.265.045h-.662v-.065h-6.908Zm.1-33.029a2.465,2.465,0,0,0-2.461,2.461V76.292a2.453,2.453,0,0,0,1.611,2.3l.088-.009h8.344a2.469,2.469,0,0,0,1.588-2.3V49.531a2.464,2.464,0,0,0-2.461-2.461Z" transform="translate(309.68 -45.747)" fill="#68ae42"/>
    </g>
    <g id="Group_171" data-name="Group 171" transform="translate(-303.353 78.585)">
      <path id="Path_7265" data-name="Path 7265" d="M-299.409,77h-6.708a3.569,3.569,0,0,1-.937-.12l-.488-.134V75.575l.662-.071h8.9v1.238l-.488.134A3.609,3.609,0,0,1-299.409,77Z" transform="translate(307.542 -75.504)" fill="#68ae42"/>
    </g>
    <g id="Group_172" data-name="Group 172" transform="translate(-303.351 78.447)">
      <path id="Path_7266" data-name="Path 7266" d="M-297.983,86.3h-9.557V75.379l.838.231a2.256,2.256,0,0,0,.586.076h6.709a2.31,2.31,0,0,0,.586-.076l.838-.231Zm-8.232-1.323h6.908v-7.97h-6.908Z" transform="translate(307.54 -75.379)" fill="#68ae42"/>
    </g>
    <g id="Group_173" data-name="Group 173" transform="translate(-303.353 78.585)">
      <path id="Path_7267" data-name="Path 7267" d="M-299.409,77h-6.708a3.569,3.569,0,0,1-.937-.12l-.488-.134V75.575l.662-.071h8.9v1.238l-.488.134A3.609,3.609,0,0,1-299.409,77Z" transform="translate(307.542 -75.504)" fill="#68ae42"/>
    </g>
    <g id="Group_174" data-name="Group 174" transform="translate(-305.189 98.082)">
      <path id="Path_7268" data-name="Path 7268" d="M-291.682,103.619h-13.582a3.944,3.944,0,0,1-3.941-3.94V97.113a3.945,3.945,0,0,1,3.941-3.941h13.582a3.945,3.945,0,0,1,3.941,3.941v2.567A3.944,3.944,0,0,1-291.682,103.619ZM-305.264,94.5a2.619,2.619,0,0,0-2.616,2.616v2.567a2.619,2.619,0,0,0,2.616,2.616h13.582a2.619,2.619,0,0,0,2.616-2.616V97.113a2.619,2.619,0,0,0-2.616-2.616Z" transform="translate(309.205 -93.172)" fill="#68ae42"/>
    </g>
  </g>
</svg>
